# xmcd CD Database Entry
#
# Track frame offsets:
# 150
# 21611
# 52979
# 83253
# 108294
# 120046
# 142306
# 160176
# 181546
# 197340
# 221469
# 245169
# 261572
# 286063
# 311975
#
# Disc length: 4595 seconds
#
# Revision: 1
# Processed by: cddbd v1.4PL0 Copyright (c) Steve Scherf et al.
# Submitted via: tcd 2.0b
#
DISCID=cd11f10f
DTITLE=Heineken - CHILL ZONE
DYEAR=1900
DGENRE=
TTITLE0=NITIN SAWHNEY Breathing light
TTITLE1=DELERIUM Silence
TTITLE2=FATBOY SLIM Sunset (Bird od Prey)
TTITLE3=PAUL VAN DYK Vega
TTITLE4=MOBY Novio
TTITLE5=WELLJAM Nebreska Vreta
TTITLE6=GOLDFRAPP Utopía
TTITLE7=CANE 141 Real Spacemen Never Walk Anywhere
TTITLE8=VIOLET INDIANA Sundance
TTITLE9=DARLING NIKKIE As the Water Flows
TTITLE10=THIEVERY CORPORATION Indra
TTITLE11=ALEX KID Fear in Fight
TTITLE12=GARBOR DEUTSCH Love Garden
TTITLE13=JAZZVA Nervous Lady
TTITLE14=ST GERMAIN Deep in It
EXTD=
EXTT0=
EXTT1=
EXTT2=
EXTT3=
EXTT4=
EXTT5=
EXTT6=
EXTT7=
EXTT8=
EXTT9=
EXTT10=
EXTT11=
EXTT12=
EXTT13=
EXTT14=
PLAYORDER=
